<svg xmlns="http://www.w3.org/2000/svg" viewBox="0 0 64 64">
  <rect width="64" height="64" rx="18" fill="#02181d"/>
  <ellipse cx="32" cy="36" rx="13" ry="10" fill="#c9b37a"/>
  <path d="M21 32 11 26M43 32l10-6M21 39l-10 5M43 39l10 5M25 45l-8 7M39 45l8 7" stroke="#c9b37a" stroke-width="3.5" stroke-linecap="round" stroke-linejoin="round"/>
  <path d="M23 26c-4-2-7-5-8-10 5 .5 8 3 10 7M41 26c4-2 7-5 8-10-5 .5-8 3-10 7" stroke="#c9b37a" stroke-width="3.5" stroke-linecap="round" stroke-linejoin="round"/>
  <circle cx="27.5" cy="35" r="1.8" fill="#02181d"/>
  <circle cx="36.5" cy="35" r="1.8" fill="#02181d"/>
</svg>
